<?xml version="1.0" encoding="UTF-8" standalone="no"?>
<!-- Created with Inkscape (http://www.inkscape.org/) -->

<svg
   width="100mm"
   height="75mm"
   viewBox="0 0 100 75"
   version="1.1"
   id="svg5"
   inkscape:version="1.2.1 (9c6d41e, 2022-07-14)"
   sodipodi:docname="komplex.svg"
   xmlns:inkscape="http://www.inkscape.org/namespaces/inkscape"
   xmlns:sodipodi="http://sodipodi.sourceforge.net/DTD/sodipodi-0.dtd"
   xmlns="http://www.w3.org/2000/svg"
   xmlns:svg="http://www.w3.org/2000/svg">
   <defs
      id="defs2">
      <rect
         x="34.527672"
         y="201.41141"
         width="337.05582"
         height="197.30098"
         id="rect1729" />
      <rect
         x="34.527672"
         y="201.41141"
         width="364.18472"
         height="207.16603"
         id="rect1889" />
      <rect
         x="34.527672"
         y="201.41141"
         width="337.05582"
         height="197.30098"
         id="rect2621" />
   </defs>
   <g
      inkscape:label="Layer 1"
      inkscape:groupmode="layer"
      id="layer1">
      <g
         transform="matrix(0.07690657,0,0,-0.07690657,24.082541,48.533482)"
         id="g393">
         <g
            fill="#000000"
            stroke-width="0"
            transform="translate(0,-210)"
            data-token="\mathbb{C}"
            id="g391">
            <path
               id="use389"
               d="m 684,131 q 0,-6 -12,-22 Q 660,93 633,71 606,49 573,29 540,9 489,-5 438,-19 386,-19 330,-19 276,-3 222,13 174,46 126,79 91,134 56,189 44,261 q -5,22 -5,80 0,58 5,80 22,117 99,190 77,73 198,88 3,0 23,1 20,1 31,1 54,-3 108,-24 54,-21 82,-22 18,0 26,7 8,7 9,16 1,9 5,16 4,7 14,8 11,0 18,-12 V 481 l -4,-7 q -13,-7 -25,-2 -4,4 -10,24 -6,20 -23,45 -33,46 -88,84 -55,38 -117,38 h -9 q -44,0 -82,-38 -87,-78 -87,-289 0,-87 21,-157 41,-149 172,-149 128,0 236,100 17,17 25,17 5,0 11,-4 6,-4 7,-12 z M 250,625 q 14,18 11,18 -23,-8 -47,-23 -24,-15 -53,-41 -29,-26 -51,-69 -22,-43 -31,-96 -5,-30 -5,-73 0,-43 5,-73 10,-55 34,-99 24,-44 51,-68 27,-24 53,-40 26,-16 43,-22 l 17,-5 q -7,7 -13,14 -65,63 -83,206 -3,27 -3,90 0,63 3,90 19,125 69,191 z m 371,-60 v 60 q -4,-2 -8,-2 -10,-4 -23,-4 h -15 l 13,-14 q 20,-22 22,-26 z" />
         </g>
      </g>
   </g>
</svg>