<?xml version="1.0" encoding="UTF-8" standalone="no"?>
<!-- Created with Inkscape (http://www.inkscape.org/) -->

<svg
   width="100mm"
   height="75mm"
   viewBox="0 0 100 75"
   version="1.1"
   id="svg5"
   inkscape:version="1.2.1 (9c6d41e, 2022-07-14)"
   sodipodi:docname="unit-grundlagen.svg"
   xmlns:inkscape="http://www.inkscape.org/namespaces/inkscape"
   xmlns:sodipodi="http://sodipodi.sourceforge.net/DTD/sodipodi-0.dtd"
   xmlns="http://www.w3.org/2000/svg"
   xmlns:svg="http://www.w3.org/2000/svg">
  <sodipodi:namedview
     id="namedview7"
     pagecolor="#ffffff"
     bordercolor="#000000"
     borderopacity="0.25"
     inkscape:showpageshadow="2"
     inkscape:pageopacity="0.0"
     inkscape:pagecheckerboard="0"
     inkscape:deskcolor="#d1d1d1"
     inkscape:document-units="mm"
     showgrid="false"
     inkscape:zoom="0.87711235"
     inkscape:cx="111.16022"
     inkscape:cy="194.38787"
     inkscape:window-width="1390"
     inkscape:window-height="1205"
     inkscape:window-x="0"
     inkscape:window-y="25"
     inkscape:window-maximized="0"
     inkscape:current-layer="text1887" />
  <defs
     id="defs2">
    <rect
       x="-1.1401048"
       y="43.323982"
       width="405.87731"
       height="194.95792"
       id="rect472" />
    <rect
       x="34.527672"
       y="201.41141"
       width="337.05582"
       height="197.30098"
       id="rect1729" />
    <rect
       x="34.527672"
       y="201.41141"
       width="364.18472"
       height="207.16603"
       id="rect1889" />
    <rect
       x="34.527672"
       y="201.41141"
       width="337.05582"
       height="197.30098"
       id="rect2621" />
  </defs>
  <g
     inkscape:label="Layer 1"
     inkscape:groupmode="layer"
     id="layer1">
    <g
       aria-label="lim"
       transform="matrix(0.98639763,0,0,0.979137,-21.229893,-193.76269)"
       id="text1887"
       style="font-size:58.6667px;font-family:'Heiti SC';-inkscape-font-specification:'Heiti SC';white-space:pre;shape-inside:url(#rect1889);display:inline;opacity:1;fill:#000000;stroke:#aa322c;stroke-width:6e-08">
      <g
         transform="matrix(0.03294049,0,0,-0.03318474,27.232119,236.51375)"
         id="g2495">
        <g
           fill="#000000"
           stroke-width="0"
           transform="translate(0,-210)"
           data-token="x"
           id="g2481">
          <path
             id="use2479"
             d="m 52,289 q 7,42 54,97 47,55 116,56 35,0 64,-18 29,-18 43,-45 42,63 101,63 37,0 64,-22 27,-22 28,-59 0,-29 -14,-47 -14,-18 -27,-22 -13,-4 -23,-4 -19,0 -31,11 -12,11 -12,29 0,46 50,63 -11,13 -40,13 -13,0 -19,-2 -38,-16 -56,-66 -60,-221 -60,-258 0,-28 16,-40 16,-12 35,-12 37,0 73,33 36,33 49,81 3,10 6,11 3,1 16,2 h 4 q 15,0 15,-8 0,-1 -2,-11 Q 486,77 440,33 394,-11 333,-11 263,-11 227,52 186,-10 133,-10 h -6 q -49,0 -70,26 -21,26 -22,55 0,32 19,52 19,20 45,20 43,0 43,-42 Q 142,81 130,66 118,51 107,46 96,41 94,41 l -3,-1 q 0,-1 6,-4 6,-3 16,-7 10,-4 19,-3 36,0 62,45 9,16 23,68 14,52 28,108 14,56 16,66 5,27 5,39 0,28 -15,40 -15,12 -34,12 -40,0 -75,-32 -35,-32 -49,-82 -2,-9 -5,-10 -3,-1 -16,-2 H 58 q -6,6 -6,11 z" />
        </g>
        <g
           fill="#000000"
           stroke-width="0"
           transform="translate(750,-210)"
           data-token="+"
           id="g2485">
          <path
             id="use2483"
             d="m 56,237 q 0,0 0,13 0,13 14,20 h 299 v 150 l 1,150 q 10,13 19,13 13,0 20,-15 V 270 h 298 q 15,-8 15,-20 0,-12 -15,-20 H 409 V -68 q -8,-14 -18,-14 h -2 -2 q -12,0 -18,14 V 230 H 70 q -14,7 -14,20 z" />
        </g>
        <g
           fill="#000000"
           stroke-width="0"
           transform="translate(1750,-210)"
           data-token="i"
           id="g2489">
          <path
             id="use2487"
             d="m 184,600 q 0,24 19,42 19,18 44,19 18,0 30,-12 12,-12 13,-30 0,-23 -20,-42 -20,-19 -44,-20 -15,0 -28,10 -13,10 -14,33 z M 21,287 q 0,8 9,31 9,23 24,51 15,28 44,51 29,23 60,22 39,0 65,-23 26,-23 27,-62 0,-17 -14,-56 -14,-39 -40,-105 -26,-66 -42,-113 -5,-22 -5,-32 0,-25 17,-25 9,0 19,3 10,3 23,14 13,11 27,35 14,24 25,59 3,12 5,14 2,2 17,2 20,0 20,-10 0,-8 -9,-31 -9,-23 -25,-51 -16,-28 -45,-50 -29,-22 -62,-22 -32,0 -59,21 -27,21 -28,64 0,17 5,32 5,15 43,114 38,101 44,121 6,20 7,39 0,24 -17,24 h -2 q -30,0 -55,-33 -25,-33 -38,-84 -1,-1 -2,-3 -1,-2 -1,-3 0,-1 -2,-2 -2,-1 -3,-1 -1,0 -4,0 -3,0 -8,0 H 27 q -6,6 -6,9 z" />
        </g>
        <g
           fill="#000000"
           stroke-width="0"
           transform="translate(2100,-210)"
           data-token="y"
           id="g2493">
          <path
             id="use2491"
             d="m 21,287 q 0,14 15,48 15,34 48,71 33,37 74,36 41,0 66,-23 25,-23 26,-64 -2,-19 -3,-21 0,-3 -16,-46 -16,-43 -33,-97 -17,-54 -16,-86 0,-43 14,-60 14,-17 42,-18 23,0 43,11 20,11 31,23 11,12 27,33 0,1 5,20 5,19 14,59 9,40 19,74 38,150 42,157 13,27 43,27 13,0 21,-7 8,-7 11,-12 3,-5 2,-9 0,-13 -49,-210 -49,-197 -56,-216 -28,-83 -97,-132 -69,-49 -138,-50 -45,0 -79,22 -34,22 -34,66 0,22 7,37 7,15 19,22 12,7 20,10 8,3 17,3 44,0 44,-42 0,-20 -12,-35 -12,-15 -23,-20 -11,-5 -13,-5 l -3,-1 q 2,-5 19,-12 17,-7 34,-7 h 8 q 17,0 26,2 33,9 61,38 28,29 43,62 15,33 23,56 8,23 8,30 l -6,-4 q -6,-4 -19,-11 -13,-7 -26,-12 -20,-5 -39,-5 -46,0 -81,22 -35,22 -46,71 -1,7 -1,31 0,57 35,149 35,92 35,117 0,1 0,2 0,9 0,12 0,3 -4,7 -4,4 -11,4 h -4 Q 131,404 112,385 93,366 82,344 71,322 65,302 59,282 57,280 55,278 41,278 H 27 q -6,6 -6,9 z" />
        </g>
      </g>
    </g>
  </g>
</svg>
